<?xml version="1.0" encoding="UTF-8"?>
<!-- Generated by Pixelmator Pro 3.6.18 -->
<svg width="1024" height="1024" viewBox="0 0 1024 1024" xmlns="http://www.w3.org/2000/svg">
    <g id="icomoon-ignore"/>
    <g id="Group">
        <path id="Path" fill="#119edb" stroke="none" d="M 186.54068 578.30481 C 163.586929 578.30481 144.946396 596.946777 144.946396 619.846069 C 144.946396 642.71521 163.586929 661.345703 186.54068 661.345703 C 209.468643 661.345703 228.109161 642.716553 228.109161 619.846069 C 228.107758 596.948242 209.467239 578.30481 186.54068 578.30481 Z"/>
        <path id="path1" fill="#119edb" stroke="none" d="M 186.54068 771.179932 C 163.586929 771.179932 144.946396 789.807556 144.946396 812.721191 C 144.946396 835.578857 163.586929 854.220825 186.54068 854.220825 C 209.468643 854.220825 228.109161 835.578857 228.109161 812.721191 C 228.107758 789.809082 209.467239 771.179932 186.54068 771.179932 Z"/>
        <path id="path2" fill="#119edb" stroke="none" d="M 331.378937 661.345703 C 354.291138 661.345703 372.989044 642.716553 372.989044 619.846069 C 372.989044 596.948242 354.291138 578.30481 331.378937 578.30481 C 308.439514 578.30481 289.76886 596.946777 289.76886 619.846069 C 289.76886 642.716553 308.43808 661.345703 331.378937 661.345703 Z"/>
        <path id="path3" fill="#119edb" stroke="none" d="M 41.701004 578.30481 C 18.718529 578.30481 0.078003 596.946777 0.078003 619.846069 C 0.078003 642.71521 18.718529 661.345703 41.701004 661.345703 C 64.613182 661.345703 83.242233 642.716553 83.242233 619.846069 C 83.242233 596.948242 64.613182 578.30481 41.701004 578.30481 Z"/>
        <path id="path4" fill="#119edb" stroke="none" d="M 338.758545 769.702087 C 315.804749 769.702087 297.162781 788.344055 297.162781 811.243286 C 297.162781 834.100952 315.804749 852.74292 338.758545 852.74292 C 361.686493 852.74292 380.327026 834.100952 380.327026 811.243286 C 380.325592 788.345459 361.685059 769.702087 338.758545 769.702087 Z"/>
        <path id="path5" fill="#119edb" stroke="none" d="M 653.244141 771.179932 C 630.290344 771.179932 611.649841 789.807556 611.649841 812.721191 C 611.649841 835.578857 630.290344 854.220825 653.244141 854.220825 C 676.183594 854.220825 694.825562 835.578857 694.825562 812.721191 C 694.825562 789.809082 676.183594 771.179932 653.244141 771.179932 Z"/>
        <path id="path6" fill="#119edb" stroke="none" d="M 805.474915 769.702087 C 782.506775 769.702087 763.851929 788.344055 763.851929 811.243286 C 763.851929 834.100952 782.508179 852.74292 805.474915 852.74292 C 828.388489 852.74292 847.044861 834.100952 847.044861 811.243286 C 847.044861 788.345459 828.402893 769.702087 805.474915 769.702087 Z"/>
        <path id="path7" fill="#119edb" stroke="none" d="M 498.261292 769.702087 C 475.321869 769.702087 456.651154 788.344055 456.651154 811.243286 C 456.651154 834.100952 475.320404 852.74292 498.261292 852.74292 C 521.173462 852.74292 539.871338 834.100952 539.871338 811.243286 C 539.871338 788.345459 521.173462 769.702087 498.261292 769.702087 Z"/>
        <path id="path8" fill="#119edb" stroke="none" d="M 98.414642 359.547241 C 75.488129 359.547241 56.791641 378.17627 56.791641 401.08844 C 56.791641 423.957581 75.489571 442.601013 98.414642 442.601013 C 121.312477 442.601013 140.024734 423.958984 140.024734 401.08844 C 140.024734 378.17627 121.313896 359.547241 98.414642 359.547241 Z"/>
        <path id="path9" fill="#119edb" stroke="none" d="M 596.929382 302.086121 C 596.929382 229.092285 537.466553 169.711182 464.375153 169.711182 C 391.243591 169.711182 331.737671 229.092285 331.737671 302.086121 L 400.832886 302.086121 C 400.832886 267.192627 429.34256 238.8078 464.373718 238.8078 C 499.364685 238.8078 527.832764 267.192627 527.832764 302.086121 C 527.832764 337.0354 499.363281 365.474731 464.373718 365.474731 L 231.439545 365.474731 L 231.439545 434.571411 L 464.376556 434.571411 C 537.466553 434.571411 596.929382 375.134338 596.929382 302.086121 L 596.929382 302.086121 Z"/>
        <path id="path10" fill="#119edb" stroke="none" d="M 838.656555 285.181458 C 736.406921 285.181458 653.215393 368.220886 653.215393 470.276733 L 722.310608 470.276733 C 722.310608 406.322754 774.491516 354.278198 838.656555 354.278198 C 902.764099 354.278198 954.903381 406.322754 954.903381 470.276733 C 954.903381 534.329834 902.762695 586.441772 838.656555 586.441772 L 458.998657 586.441772 L 458.998657 655.538452 L 838.656555 655.538452 C 940.861633 655.538452 1024 572.430176 1024 470.278259 C 1024 368.223755 940.850159 285.182861 838.656555 285.181458 L 838.656555 285.181458 Z"/>
    </g>
</svg>
